<?xml version="1.0" encoding="UTF-8" standalone="no"?>
<!DOCTYPE svg PUBLIC "-//W3C//DTD SVG 1.1//EN" "http://www.w3.org/Graphics/SVG/1.1/DTD/svg11.dtd">
<svg width="100%" height="100%" viewBox="0 0 2026 1206" version="1.1" xmlns="http://www.w3.org/2000/svg" xmlns:xlink="http://www.w3.org/1999/xlink" xml:space="preserve" xmlns:serif="http://www.serif.com/" style="fill-rule:evenodd;clip-rule:evenodd;stroke-linejoin:round;stroke-miterlimit:2;">
    <g id="Livello-1" serif:id="Livello 1">
        <path d="M362.907,1121.2C350.927,1142.95 317.755,1165.45 282.984,1165.45C231.195,1165.45 189.067,1116.65 189.067,1056.67C189.067,996.693 231.195,947.898 282.984,947.898C318.362,947.898 350.909,970.389 362.395,992.956L367.369,1001.24L403.86,1001.24L392.267,976.42C374.231,940.811 327.236,913.957 282.984,913.957C212.49,913.957 155.127,977.982 155.127,1056.67C155.127,1135.37 212.49,1199.39 282.984,1199.39C331.792,1199.39 375.119,1168.46 392.898,1137.55L406.272,1112.48L368.126,1112.48L362.907,1121.2Z" style="fill:black;fill-rule:nonzero;"/>
        <path d="M455.767,913.952L421.833,913.952L421.833,1182.41C421.833,1191.93 429.282,1199.38 438.8,1199.38L600.566,1199.38L600.566,1165.45L455.767,1165.45L455.767,913.952Z" style="fill:black;fill-rule:nonzero;"/>
        <rect x="624.144" y="913.952" width="33.934" height="285.43" style="fill:black;"/>
        <path d="M745.324,1009.18L827.148,1189.12C829.379,1194.33 834.197,1197.96 839.853,1198.87L845.515,1198.87C851.146,1197.95 855.945,1194.36 858.076,1189.37L939.731,1009.15L940.012,1199.39L973.947,1199.39L973.572,930.931C973.572,925.106 970.597,919.944 965.891,916.932L953.767,914.401C948.287,915.257 943.512,918.738 941.193,923.969L842.646,1141.44L743.799,924.056C741.443,918.744 736.644,915.238 731.132,914.388L719.014,916.969C714.333,919.975 711.384,925.125 711.384,930.931L711.384,1199.39L745.324,1199.39L745.324,1009.18Z" style="fill:black;fill-rule:nonzero;"/>
        <path d="M1135.99,1039.7L1061.72,1040.01L1061.58,951.696L1136.05,951.696C1164.51,951.696 1187.67,971.431 1187.67,995.698C1187.67,1019.96 1164.51,1039.7 1135.99,1039.7M1151.66,1073.63C1179.44,1073.63 1202.9,1093.78 1202.9,1117.64C1202.9,1141.48 1179.44,1161.63 1151.61,1161.63L1061.92,1161.96L1061.77,1073.63L1151.66,1073.63ZM1027.62,1178.61C1027.62,1188.12 1035.07,1195.57 1044.59,1195.57L1151.66,1195.57C1198.62,1195.57 1236.84,1160.61 1236.84,1117.64C1236.84,1090.09 1220.71,1065.09 1196.01,1051.18C1212.06,1036.74 1221.6,1016.82 1221.6,995.698C1221.6,952.727 1183.22,917.761 1135.99,917.761L1044.98,918.143C1035.46,918.143 1028.01,925.592 1028.01,935.091L1027.83,1055.77L1027.14,1072.34L1027.79,1072.38L1027.62,1178.61Z" style="fill:black;fill-rule:nonzero;"/>
        <rect x="1271.85" y="913.952" width="33.934" height="285.43" style="fill:black;"/>
        <path d="M1541.67,1130.17L1389.8,920.983C1386.46,916.321 1381.14,913.878 1375.36,914.147L1366.7,916.99C1362.01,920.052 1359.08,925.221 1359.08,930.926L1359.08,1199.38L1393.02,1199.38L1393.02,983.253L1544.81,1192.34C1548.14,1197 1553.56,1199.37 1559.26,1199.19L1567.87,1196.39C1572.59,1193.32 1575.54,1188.14 1575.54,1182.43L1575.91,913.953L1541.98,913.953L1541.67,1130.17Z" style="fill:black;fill-rule:nonzero;"/>
        <path d="M1848.52,1039.7L1721.81,1039.7L1721.81,1073.63L1830.79,1073.63C1824.84,1124.59 1784.95,1165.44 1738.4,1165.44C1686.62,1165.44 1644.48,1116.65 1644.48,1056.67C1644.48,996.685 1686.62,947.89 1738.52,947.89C1738.81,947.884 1739.09,947.884 1739.37,947.884C1775.76,947.884 1807.06,970.613 1818.58,992.954L1823.56,1001.23L1860.06,1001.23L1848.41,976.356C1832.83,945.984 1789.39,913.943 1739.43,913.943C1668.63,913.706 1610.55,977.593 1610.55,1056.67C1610.55,1135.36 1667.91,1199.38 1738.4,1199.38C1808.48,1199.38 1865.49,1135.36 1865.49,1056.67C1865.49,1047.15 1858.03,1039.7 1848.52,1039.7" style="fill:black;fill-rule:nonzero;"/>
        <path d="M1046.05,403.746L1061.72,447.591C1067.68,464.302 1073.57,481.226 1079.43,498.224L968.32,498.224C984.118,478.414 1000.04,458.728 1016.17,439.455L1046.05,403.746ZM1904.33,475.883C1894.04,477.815 1883.76,479.796 1873.49,481.826C1806.39,495.08 1739.53,510.397 1674.07,527.534L1650.63,533.665L1642.29,510.917C1623.37,459.284 1603.1,407.258 1581.91,355.894C1490.51,401.771 1401.05,451.891 1315.6,505.105L1290.41,520.791L1277.51,494.062C1225.04,385.385 1166.72,277.182 1103.93,171.973C983.037,292.562 871.26,421.013 771.332,554.206L764.064,563.893L751.99,564.793C734.435,566.105 716.875,567.549 699.326,569.124L685.015,570.411L612.066,463.14L527.436,463.14L566.251,528.484L529.886,596.584L522.986,596.321C480.165,594.715 436.694,593.897 393.767,593.897C359.858,593.897 325.449,594.409 291.508,595.409L247.631,596.709L266.71,557.181C306.844,474.026 350.915,390.853 397.692,309.967L406.266,295.149L423.302,296.774C499.195,304.036 575.269,313.735 650.656,325.759C536.391,249.854 357.183,133.477 297.226,100.305C176.269,327.471 78.803,563.049 7.084,801.533C280.828,717.029 564.214,667.327 850.481,653.672C859.905,640.486 896.064,591.928 914.675,566.968L1102.82,566.968L1112.09,594.803L1111.9,594.803L1112.78,597.509C1118.67,615.601 1124.5,633.693 1130.2,651.81C1201.04,654.247 1272.45,658.94 1342.92,665.79C1378.5,630.718 1415.33,596.021 1452.52,562.518L1479.84,537.902L1494.73,571.53C1512.26,611.107 1529.32,651.435 1545.55,691.619C1591.45,698.887 1637.64,707.167 1683.29,716.31C1694.41,697.174 1705.76,677.951 1717.11,658.978L1740.97,619.063L1763.35,659.84C1778.48,687.413 1793.43,715.573 1807.85,743.708C1878.54,760.656 1949.3,780.042 2018.96,801.54C1986.11,692.344 1947.65,583.098 1904.33,475.883" style="fill:black;fill-rule:nonzero;"/>
        <path d="M1974.89,829.716L2004.21,839.091L2009.87,799.161C1978.2,693.913 1927.63,632.71 1885.9,529.438L1881.78,519.248L1870.98,521.279C1796.24,535.315 1723.49,544.016 1650.73,563.068L1639.99,565.874C1639.99,565.874 1378.74,492.203 1296.36,543.509L1284.81,550.688L1278.91,538.45C1228.38,433.772 1171.22,306.229 1110.64,204.73L1101.83,189.955L1089.65,202.11C973.025,318.431 865.013,442.558 768.622,571.046L765.281,575.486L759.754,575.894C742.804,577.162 539.332,606.11 539.332,606.11L536.514,606.008C463.843,603.388 390.386,603.154 317.643,605.299L297.551,605.9L306.287,587.791C344.704,508.186 386.913,428.522 431.747,350.997L435.664,344.207L443.475,344.952C510.54,351.369 640.38,368.295 713.465,378.809C643.967,332.809 381.265,159.307 330.038,130.966L318.106,124.363L311.701,136.397C195.085,355.407 85.574,568.923 16.413,798.886L19.857,839.595L48.542,829.704C310.541,748.826 582.238,701.186 856.085,688.124L862.58,687.817L866.359,682.524C875.234,670.117 908.61,625.295 922.549,606.603L923.907,604.782L1088.33,604.782L1094.87,624.88C1100.52,642.232 1106.11,659.59 1111.58,676.96L1114.43,686.015L1123.92,686.345C1191.7,688.683 1260.24,693.183 1327.6,699.732L1333.84,700.333L1338.31,695.929C1372.29,662.444 1407.6,629.182 1443.24,597.056L1455.76,585.784L1462.57,601.189C1479.28,638.892 1495.67,677.603 1511.26,716.237L1514.11,723.279L1521.6,724.468C1565.33,731.384 1609.71,739.327 1653.5,748.105L1662.89,749.98L1667.72,741.694C1678.39,723.345 1689.28,704.917 1700.16,686.712L1711.09,668.435L1721.34,687.102C1735.93,713.719 1750.27,740.739 1763.95,767.41L1766.76,772.895L1772.76,774.331C1840.26,790.518 1908.26,809.144 1974.89,829.716M10.94,850.781L7.285,801.004C76.627,570.471 186.834,351.682 303.72,132.149L314.444,112.003L334.422,123.053C393.592,155.792 731.927,380.185 735.334,382.45L752.289,393.698L732.167,390.688C665.631,380.726 516.216,360.994 442.62,353.953L440.595,353.76L439.574,355.521C394.854,432.854 352.748,512.32 314.432,591.72L312.167,596.413L317.383,596.263C389.386,594.142 462.063,594.334 534.025,596.875C534.025,596.875 742.093,568.144 759.085,566.876L760.527,566.768L761.398,565.614C858.048,436.796 966.342,312.333 1083.26,195.711L1103.65,175.373L1118.41,200.097C1179.13,301.824 1236.41,429.609 1287.06,534.52L1288.6,537.692L1291.59,535.836C1374.2,484.381 1648.44,554.32 1648.44,554.32C1721.41,535.22 1794.37,526.47 1869.32,512.393L1887.4,508.998L1894.29,526.05C1936.12,629.579 1987.19,695.99 2018.94,801.496L2012.5,850.775L1972.23,838.35C1905.78,817.838 1837.96,799.26 1770.66,783.128L1760.62,780.718L1755.91,771.543C1742.28,744.945 1727.97,717.991 1713.41,691.446L1710.76,686.61L1707.92,691.356C1697.06,709.52 1686.19,727.923 1675.55,746.236L1667.48,760.116L1651.72,756.967C1608.06,748.219 1563.81,740.288 1520.2,733.403L1507.64,731.408L1502.88,719.626C1487.32,681.076 1470.98,642.455 1454.31,604.848L1452.55,600.847L1449.3,603.773C1413.75,635.803 1378.54,668.981 1344.65,702.37L1337.17,709.736L1326.73,708.726C1259.55,702.195 1191.22,697.707 1123.6,695.376L1107.74,694.829L1102.96,679.682C1097.5,662.336 1091.92,645.002 1086.28,627.68L1081.77,613.825L928.447,613.825C913.823,633.436 882.267,675.819 873.724,687.781L867.385,696.638L856.522,697.16C583.431,710.186 312.486,757.694 51.214,838.344L10.94,850.781Z" style="fill:black;fill-rule:nonzero;"/>
    </g>
</svg>
